<svg id="Layer_1" enable-background="new 0 0 512 512" height="512" viewBox="0 0 512 512" width="512" xmlns="http://www.w3.org/2000/svg"><g id="XMLID_1034_"><g id="XMLID_719_"><g id="XMLID_720_"><g id="XMLID_721_"><g id="XMLID_722_"><g id="XMLID_723_"><g id="XMLID_724_"><g id="XMLID_725_"><g id="XMLID_726_"><g id="XMLID_727_"><g id="XMLID_728_"><g id="XMLID_729_"><g id="XMLID_730_"><g id="XMLID_731_"><g id="XMLID_742_"><circle id="XMLID_743_" cx="256" cy="256" fill="#324a5e" r="256"/></g></g></g></g></g></g></g></g></g></g></g></g></g></g><path id="XMLID_839_" d="m512 256c0-9.76-.565-19.387-1.629-28.862l-109.298-109.299c-36.49-38.304-321.538 246.744-283.234 283.234l109.298 109.298c9.476 1.064 19.103 1.629 28.863 1.629 141.385 0 256-114.615 256-256z" fill="#213949"/><g id="XMLID_875_"><g id="XMLID_2077_"><g id="XMLID_2078_"><g id="XMLID_2079_"><g id="XMLID_2080_"><g id="XMLID_2081_"><g id="XMLID_2097_"><g id="XMLID_2098_"><g id="XMLID_2099_"><g id="XMLID_2100_"><g id="XMLID_2101_"><g id="XMLID_2102_"><g id="XMLID_2103_"><g id="XMLID_2104_"><g id="XMLID_2105_"><g id="XMLID_2106_"><circle id="XMLID_2107_" cx="256" cy="256" fill="#ffc56e" r="166.65"/></g></g></g></g></g></g></g></g></g></g></g></g></g></g></g></g><path id="XMLID_2117_" d="m422.65 256c0 92.04-74.61 166.65-166.65 166.65v-333.3c92.04 0 166.65 74.61 166.65 166.65z" fill="#f2a846"/><path id="XMLID_763_" d="m256 57.834c-109.27 0-198.167 88.897-198.167 198.166s88.897 198.167 198.167 198.167 198.167-88.897 198.167-198.167-88.897-198.166-198.167-198.166zm-153.166 198.166c0-84.456 68.71-153.166 153.167-153.166 34.13 0 65.685 11.225 91.176 30.171l-214.173 214.171c-18.946-25.491-30.17-57.046-30.17-91.176zm153.166 153.167c-34.13 0-65.684-11.225-91.176-30.171l214.172-214.172c18.946 25.492 30.171 57.046 30.171 91.176 0 84.457-68.71 153.167-153.167 153.167z" fill="#ff637b"/><g id="XMLID_1038_"><g id="XMLID_2246_"><g id="XMLID_2247_"><g id="XMLID_2248_"><g id="XMLID_2249_"><g id="XMLID_2250_"><g id="XMLID_2251_"><g id="XMLID_2252_"><g id="XMLID_2253_"><g id="XMLID_2254_"><g id="XMLID_2255_"><g id="XMLID_2256_"><g id="XMLID_2257_"><g id="XMLID_2258_"><g id="XMLID_2259_"><g id="XMLID_2260_"><g id="XMLID_2261_"><path id="XMLID_2262_" d="m256 57.83v45c34.13 0 65.68 11.23 91.18 30.17l-91.18 91.18v63.64l123-123c18.94 25.5 30.17 57.05 30.17 91.18 0 84.46-68.71 153.17-153.17 153.17v45c109.27 0 198.17-88.9 198.17-198.17s-88.9-198.17-198.17-198.17z" fill="#e03b5a"/></g></g></g></g></g></g></g></g></g></g></g></g></g></g></g></g></g></g></svg>